<svg xmlns="http://www.w3.org/2000/svg" viewBox="0 0 78.91 41.95"><defs><linearGradient id="a" y1="20.97" x2="78.91" y2="20.97" gradientUnits="userSpaceOnUse"><stop offset=".08" stop-color="#ff4547"/><stop offset="1" stop-color="#ff6e3d"/></linearGradient></defs><title>Ресурс 1</title><path d="M58.07 41.95h-.74a2.25 2.25 0 0 1 .16-4.5A16.35 16.35 0 0 0 74.4 21.66a16.35 16.35 0 0 0-32.66-1.74c0 .12-.05 1.89-.06 2.06A20.85 20.85 0 1 1 20.85 0a2.25 2.25 0 0 1 0 4.5 16.35 16.35 0 1 0 16.33 17.24c0-.15.06-2 .07-2.14a20.85 20.85 0 1 1 35 16.74 20.71 20.71 0 0 1-14.18 5.61z" fill="url(#a)"/><circle cx="58.12" cy="15.79" r="2.33" fill="#020202"/><circle cx="58.12" cy="26.65" r="2.33" fill="#020202"/><circle cx="52.69" cy="21.22" r="2.33" fill="#020202"/><circle cx="63.56" cy="21.22" r="2.33" fill="#020202"/><path d="M25.55 18.95A2.45 2.45 0 0 1 28 21.4a2.45 2.45 0 0 1-2.45 2.45h-10.1A2.45 2.45 0 0 1 13 21.4a2.45 2.45 0 0 1 2.45-2.45z" fill="#171717"/><path d="M18 16.4a2.45 2.45 0 0 1 2.45-2.45 2.45 2.45 0 0 1 2.45 2.45v10.1a2.45 2.45 0 0 1-2.45 2.45A2.45 2.45 0 0 1 18 26.5z" fill="#171717"/></svg>